<svg xmlns="http://www.w3.org/2000/svg" viewBox="0 0 1000 1000" role="img" aria-labelledby="t d"><title id="t">The Bends inspired artwork</title><desc id="d">A charcoal guitarist surrounded by rough purple electric energy.</desc><rect width="1000" height="1000" fill="#d7d2cf"/><path d="M0 0h1000v1000H0z" fill="url(#g)" opacity=".5"/><defs><linearGradient id="g" x1="0" y1="0" x2="1" y2="1"><stop stop-color="#f2efec"/><stop offset="1" stop-color="#7d7778"/></linearGradient></defs><g fill="none" stroke="#252126" stroke-linecap="round" stroke-linejoin="round"><circle cx="480" cy="240" r="105" stroke-width="22"/><path d="M420 340 Q470 430 520 340 M385 435 Q470 380 555 440 L635 760 M380 430 L280 760 M355 560 L690 650" stroke-width="25"/><path d="M250 720 L740 610 L770 690 L280 800 Z" stroke-width="18"/><path d="M350 690 L690 625 M385 730 L720 655" stroke-width="9"/><path d="M170 210 Q330 100 470 150 M120 360 Q300 240 450 260 M600 140 Q780 220 860 390 M610 420 Q800 470 900 700" stroke="#5d2f79" stroke-width="28" opacity=".85"/><path d="M80 880 L260 610 M120 930 L300 680 M720 180 L900 500 M760 120 L950 430" stroke="#5d2f79" stroke-width="13" opacity=".65"/></g><text x="60" y="935" font-family="Georgia,serif" font-size="48" fill="#29232a">THE BENDS — 1995</text></svg>